<svg width="113" height="141" viewBox="0 0 113 141" fill="none" xmlns="http://www.w3.org/2000/svg">
<path d="M63.2294 75.0723H108.758V136.799H63.2294V75.0723Z" fill="#5EB700"/>
<path d="M4.04236 75.0723H49.5708V136.799H4.04236V75.0723Z" fill="#5EB700"/>
<g filter="url(#filter0_d_0_372)">
<path d="M74.3433 13.3145C71.6866 13.3104 69.0714 13.9824 66.7374 15.2686C64.085 6.77477 55.1405 2.06805 46.7591 4.75608C39.1837 7.18543 34.5364 14.9046 35.8699 22.8427C29.7468 21.3999 23.6289 25.2608 22.2053 31.466C20.7816 37.6711 24.5913 43.8711 30.7144 45.3139C31.5834 45.5187 32.4733 45.6193 33.3657 45.6132H74.3433C83.1444 45.6132 90.2791 38.3829 90.2791 29.4637C90.2791 20.5446 83.1444 13.3145 74.3433 13.3145Z" fill="white"/>
</g>
<g filter="url(#filter1_d_0_372)">
<path d="M4 88.8594H49.5814V137H4V88.8594Z" fill="white"/>
</g>
<path d="M35.7442 83.9631C35.0977 83.9542 34.4784 83.6989 34.0105 83.2487C33.5597 82.7798 33.306 82.1532 33.3024 81.4998C33.3063 81.1781 33.3726 80.86 33.4977 80.5638C33.6216 80.2654 33.795 79.9905 34.0105 79.7509C34.9897 78.8395 36.4988 78.8395 37.4779 79.7509C37.6934 79.9905 37.8668 80.2654 37.9907 80.5638C38.1159 80.86 38.1821 81.1781 38.1861 81.4998C38.1812 82.1529 37.9279 82.7792 37.4779 83.2487C37.3614 83.3541 37.2393 83.4529 37.1117 83.5443C36.9752 83.637 36.8275 83.7118 36.6721 83.766C36.5259 83.8408 36.3681 83.8907 36.2057 83.9138C36.0534 83.9425 35.8993 83.9588 35.7442 83.9631Z" fill="#FFD33F"/>
<path d="M43.0702 83.9631C42.4238 83.9542 41.8045 83.6989 41.3367 83.2487C41.2317 83.1317 41.1337 83.0083 41.0437 82.8793C40.9512 82.7419 40.8774 82.5929 40.824 82.4359C40.7535 82.2964 40.704 82.1468 40.6775 81.9925C40.6491 81.8296 40.6329 81.6652 40.6287 81.4998C40.6201 81.1768 40.6873 80.856 40.824 80.5638C40.9479 80.2654 41.1212 79.9905 41.3367 79.7509C42.3157 78.8395 43.8246 78.8395 44.8036 79.7509C45.0191 79.9905 45.1924 80.2654 45.3163 80.5638C45.4415 80.86 45.5077 81.1781 45.5117 81.4998C45.508 81.6652 45.4906 81.8299 45.4604 81.9925C45.436 82.1471 45.3874 82.2967 45.3163 82.4359C45.262 82.5923 45.1882 82.7413 45.0966 82.8793L44.8036 83.2487C44.3355 83.6983 43.7165 83.9532 43.0702 83.9631Z" fill="#3FD100"/>
<path d="M29.2396 83.9631C28.5913 83.9542 27.9701 83.7005 27.5008 83.2532C27.2853 83.009 27.1035 82.7373 26.9596 82.4454C26.7343 81.8456 26.7343 81.1847 26.9596 80.585C27.1035 80.293 27.2853 80.0213 27.5008 79.7771C28.4612 78.8252 30.0117 78.8316 30.9643 79.7915C31.9166 80.7514 31.9102 82.3013 30.9499 83.2535C30.4947 83.7042 29.8806 83.9591 29.2396 83.9631Z" fill="#EE2849"/>
<g filter="url(#filter2_i_0_372)">
<path d="M27.1977 111.705C31.0187 111.705 34.1163 108.6 34.1163 104.77C34.1163 100.939 31.0187 97.834 27.1977 97.834C23.3766 97.834 20.2791 100.939 20.2791 104.77C20.2791 108.6 23.3766 111.705 27.1977 111.705Z" fill="#CCFF00"/>
</g>
<g filter="url(#filter3_i_0_372)">
<path d="M12.9535 128.024C12.9535 120.364 19.1485 114.153 26.7907 114.153C34.4329 114.153 40.6279 120.364 40.6279 128.024H12.9535Z" fill="#CCFF00"/>
</g>
<g filter="url(#filter4_d_0_372)">
<path d="M63.4186 88.8594H109V137H63.4186V88.8594Z" fill="white"/>
</g>
<path d="M95.1557 83.963C94.8377 83.9591 94.5233 83.8926 94.2305 83.767C93.9326 83.6485 93.6599 83.474 93.427 83.2525C92.9815 82.7834 92.7292 82.162 92.7209 81.513C92.7249 81.193 92.7909 80.8767 92.9157 80.582C93.0393 80.2853 93.2122 80.0118 93.427 79.7735C93.6599 79.5521 93.9326 79.3776 94.2305 79.259C95.1372 78.8753 96.1844 79.0784 96.8844 79.7735C97.8391 80.7263 97.8455 82.2778 96.8987 83.2385C96.4379 83.7055 95.8101 83.9667 95.1557 83.963Z" fill="#FFD33F"/>
<path d="M101.674 83.9631C101.511 83.9579 101.348 83.9413 101.186 83.914C101.033 83.8873 100.885 83.8376 100.747 83.7668C100.59 83.7128 100.442 83.6386 100.305 83.546L99.9408 83.2515C98.9965 82.2839 98.9965 80.735 99.9408 79.7673C100.648 79.0812 101.692 78.8791 102.602 79.252C102.752 79.3014 102.893 79.3759 103.017 79.4729C103.161 79.571 103.286 79.6691 103.408 79.7673C104.352 80.735 104.352 82.2839 103.408 83.2515C103.175 83.4733 102.901 83.6481 102.602 83.7668C102.309 83.8922 101.994 83.9591 101.674 83.9631Z" fill="#3FD100"/>
<path d="M88.6512 83.9631C88.0035 83.9591 87.3826 83.7048 86.9174 83.253C86.6915 83.0232 86.5166 82.7477 86.4046 82.445C86.1443 81.8522 86.1443 81.177 86.4046 80.5842C86.5166 80.2815 86.6915 80.0061 86.9174 79.7762C87.4946 79.203 88.3185 78.9551 89.1151 79.1151C89.2775 79.1381 89.4353 79.1877 89.5815 79.262C89.7314 79.3113 89.8718 79.3857 89.9967 79.4824C90.1365 79.5669 90.2671 79.6654 90.3874 79.7762C90.608 80.0103 90.782 80.2846 90.9002 80.5842C91.0244 80.8786 91.09 81.1948 91.0931 81.5146C91.0836 82.1629 90.8309 82.7835 90.3849 83.253C90.2647 83.3638 90.134 83.4624 89.9942 83.5468C89.8694 83.6436 89.729 83.7179 89.5791 83.7672C89.4329 83.8416 89.2751 83.8912 89.1127 83.9141C88.9604 83.9426 88.8062 83.9588 88.6512 83.9631Z" fill="#EE2849"/>
<g filter="url(#filter5_i_0_372)">
<path d="M85.8023 111.705C89.6233 111.705 92.7209 108.6 92.7209 104.77C92.7209 100.939 89.6233 97.834 85.8023 97.834C81.9812 97.834 78.8837 100.939 78.8837 104.77C78.8837 108.6 81.9812 111.705 85.8023 111.705Z" fill="#CCFF00"/>
</g>
<g filter="url(#filter6_i_0_372)">
<path d="M72.3721 128.024C72.3721 120.364 78.5671 114.153 86.2093 114.153C93.8515 114.153 100.046 120.364 100.046 128.024H72.3721Z" fill="#CCFF00"/>
</g>
<path d="M44.948 70.7044C43.6832 70.7044 42.6577 69.6634 42.6577 68.3795V52.1052C42.6577 50.8212 43.6832 49.7803 44.948 49.7803C46.2128 49.7803 47.2383 50.8212 47.2383 52.1052V68.3795C47.2383 69.6634 46.2131 70.7044 44.948 70.7044Z" fill="#5EB700"/>
<path d="M44.948 70.7043C44.3405 70.7043 43.7582 70.459 43.3288 70.0231L36.4579 63.0484C35.5793 62.1248 35.6045 60.6529 36.5143 59.761C37.4018 58.8909 38.8089 58.8909 39.6964 59.761L44.948 65.092L50.1997 59.761C51.1095 58.8691 52.5595 58.8947 53.4381 59.8182C54.2953 60.7191 54.2953 62.1475 53.4381 63.0484L46.5672 70.0231C46.1378 70.459 45.5555 70.704 44.948 70.7043Z" fill="#5EB700"/>
<path d="M67.851 70.7044C66.5861 70.7044 65.5607 69.6634 65.5607 68.3795V52.1052C65.5607 50.8212 66.5861 49.7803 67.851 49.7803C69.1158 49.7803 70.1413 50.8212 70.1413 52.1052V68.3795C70.1413 69.6634 69.1161 70.7044 67.851 70.7044Z" fill="#5EB700"/>
<path d="M74.7219 61.4043C74.1144 61.4043 73.5321 61.159 73.1027 60.7231L67.851 55.3921L62.5994 60.7231C61.6895 61.6153 60.2398 61.5897 59.3609 60.6661C58.5037 59.7652 58.5037 58.3369 59.3609 57.4357L66.2318 50.461C67.1261 49.5534 68.5759 49.5534 69.4702 50.461L76.3411 57.4357C77.2355 58.3438 77.2352 59.8158 76.3406 60.7237C75.9114 61.1593 75.3291 61.404 74.7219 61.4043Z" fill="#5EB700"/>
<defs>
<filter id="filter0_d_0_372" x="17.907" y="0" width="76.3721" height="49.6133" filterUnits="userSpaceOnUse" color-interpolation-filters="sRGB">
<feFlood flood-opacity="0" result="BackgroundImageFix"/>
<feColorMatrix in="SourceAlpha" type="matrix" values="0 0 0 0 0 0 0 0 0 0 0 0 0 0 0 0 0 0 127 0" result="hardAlpha"/>
<feOffset/>
<feGaussianBlur stdDeviation="2"/>
<feColorMatrix type="matrix" values="0 0 0 0 0 0 0 0 0 0 0 0 0 0 0 0 0 0 0.2 0"/>
<feBlend mode="normal" in2="BackgroundImageFix" result="effect1_dropShadow_0_372"/>
<feBlend mode="normal" in="SourceGraphic" in2="effect1_dropShadow_0_372" result="shape"/>
</filter>
<filter id="filter1_d_0_372" x="0" y="84.8594" width="53.5814" height="56.1406" filterUnits="userSpaceOnUse" color-interpolation-filters="sRGB">
<feFlood flood-opacity="0" result="BackgroundImageFix"/>
<feColorMatrix in="SourceAlpha" type="matrix" values="0 0 0 0 0 0 0 0 0 0 0 0 0 0 0 0 0 0 127 0" result="hardAlpha"/>
<feOffset/>
<feGaussianBlur stdDeviation="2"/>
<feColorMatrix type="matrix" values="0 0 0 0 0 0 0 0 0 0 0 0 0 0 0 0 0 0 0.2 0"/>
<feBlend mode="normal" in2="BackgroundImageFix" result="effect1_dropShadow_0_372"/>
<feBlend mode="normal" in="SourceGraphic" in2="effect1_dropShadow_0_372" result="shape"/>
</filter>
<filter id="filter2_i_0_372" x="20.2791" y="97.834" width="13.8372" height="13.8711" filterUnits="userSpaceOnUse" color-interpolation-filters="sRGB">
<feFlood flood-opacity="0" result="BackgroundImageFix"/>
<feBlend mode="normal" in="SourceGraphic" in2="BackgroundImageFix" result="shape"/>
<feColorMatrix in="SourceAlpha" type="matrix" values="0 0 0 0 0 0 0 0 0 0 0 0 0 0 0 0 0 0 127 0" result="hardAlpha"/>
<feOffset/>
<feGaussianBlur stdDeviation="1.5"/>
<feComposite in2="hardAlpha" operator="arithmetic" k2="-1" k3="1"/>
<feColorMatrix type="matrix" values="0 0 0 0 0.27451 0 0 0 0 0.27451 0 0 0 0 0.27451 0 0 0 0.3 0"/>
<feBlend mode="normal" in2="shape" result="effect1_innerShadow_0_372"/>
</filter>
<filter id="filter3_i_0_372" x="12.9535" y="114.153" width="27.6744" height="13.8711" filterUnits="userSpaceOnUse" color-interpolation-filters="sRGB">
<feFlood flood-opacity="0" result="BackgroundImageFix"/>
<feBlend mode="normal" in="SourceGraphic" in2="BackgroundImageFix" result="shape"/>
<feColorMatrix in="SourceAlpha" type="matrix" values="0 0 0 0 0 0 0 0 0 0 0 0 0 0 0 0 0 0 127 0" result="hardAlpha"/>
<feOffset/>
<feGaussianBlur stdDeviation="1.5"/>
<feComposite in2="hardAlpha" operator="arithmetic" k2="-1" k3="1"/>
<feColorMatrix type="matrix" values="0 0 0 0 0.27451 0 0 0 0 0.27451 0 0 0 0 0.27451 0 0 0 0.3 0"/>
<feBlend mode="normal" in2="shape" result="effect1_innerShadow_0_372"/>
</filter>
<filter id="filter4_d_0_372" x="59.4186" y="84.8594" width="53.5814" height="56.1406" filterUnits="userSpaceOnUse" color-interpolation-filters="sRGB">
<feFlood flood-opacity="0" result="BackgroundImageFix"/>
<feColorMatrix in="SourceAlpha" type="matrix" values="0 0 0 0 0 0 0 0 0 0 0 0 0 0 0 0 0 0 127 0" result="hardAlpha"/>
<feOffset/>
<feGaussianBlur stdDeviation="2"/>
<feColorMatrix type="matrix" values="0 0 0 0 0 0 0 0 0 0 0 0 0 0 0 0 0 0 0.2 0"/>
<feBlend mode="normal" in2="BackgroundImageFix" result="effect1_dropShadow_0_372"/>
<feBlend mode="normal" in="SourceGraphic" in2="effect1_dropShadow_0_372" result="shape"/>
</filter>
<filter id="filter5_i_0_372" x="78.8837" y="97.834" width="13.8372" height="13.8711" filterUnits="userSpaceOnUse" color-interpolation-filters="sRGB">
<feFlood flood-opacity="0" result="BackgroundImageFix"/>
<feBlend mode="normal" in="SourceGraphic" in2="BackgroundImageFix" result="shape"/>
<feColorMatrix in="SourceAlpha" type="matrix" values="0 0 0 0 0 0 0 0 0 0 0 0 0 0 0 0 0 0 127 0" result="hardAlpha"/>
<feOffset/>
<feGaussianBlur stdDeviation="1.5"/>
<feComposite in2="hardAlpha" operator="arithmetic" k2="-1" k3="1"/>
<feColorMatrix type="matrix" values="0 0 0 0 0.27451 0 0 0 0 0.27451 0 0 0 0 0.27451 0 0 0 0.3 0"/>
<feBlend mode="normal" in2="shape" result="effect1_innerShadow_0_372"/>
</filter>
<filter id="filter6_i_0_372" x="72.3721" y="114.153" width="27.6744" height="13.8711" filterUnits="userSpaceOnUse" color-interpolation-filters="sRGB">
<feFlood flood-opacity="0" result="BackgroundImageFix"/>
<feBlend mode="normal" in="SourceGraphic" in2="BackgroundImageFix" result="shape"/>
<feColorMatrix in="SourceAlpha" type="matrix" values="0 0 0 0 0 0 0 0 0 0 0 0 0 0 0 0 0 0 127 0" result="hardAlpha"/>
<feOffset/>
<feGaussianBlur stdDeviation="1.5"/>
<feComposite in2="hardAlpha" operator="arithmetic" k2="-1" k3="1"/>
<feColorMatrix type="matrix" values="0 0 0 0 0.27451 0 0 0 0 0.27451 0 0 0 0 0.27451 0 0 0 0.3 0"/>
<feBlend mode="normal" in2="shape" result="effect1_innerShadow_0_372"/>
</filter>
</defs>
</svg>
