<svg width="141" height="141" viewBox="0 0 141 141" fill="none" xmlns="http://www.w3.org/2000/svg">
<g filter="url(#filter0_d_0_407)">
<path d="M70.5 137C107.227 137 137 107.227 137 70.5C137 33.7731 107.227 4 70.5 4C33.7731 4 4 33.7731 4 70.5C4 107.227 33.7731 137 70.5 137Z" fill="white"/>
</g>
<g filter="url(#filter1_i_0_407)">
<path d="M70.5 130.328C103.542 130.328 130.328 103.542 130.328 70.5004C130.328 37.4586 103.542 10.6729 70.5 10.6729C37.4581 10.6729 10.6724 37.4586 10.6724 70.5004C10.6724 103.542 37.4581 130.328 70.5 130.328Z" stroke="white" stroke-width="5"/>
</g>
<path d="M79.0006 39.0683L72.1213 32.189C71.2258 31.2938 69.7743 31.2938 68.8788 32.189L61.9995 39.0683L65.242 42.3107L68.2069 39.3457V70.4998H72.7931V39.3457L75.7581 42.3107L79.0006 39.0683Z" fill="#5EB700"/>
<g filter="url(#filter2_i_0_407)">
<path d="M68.2069 20.0518H72.7931V29.2242H68.2069V20.0518Z" fill="#CCFF00"/>
</g>
<g filter="url(#filter3_i_0_407)">
<path d="M111.776 68.207H120.948V72.7932H111.776V68.207Z" fill="#CCFF00"/>
</g>
<g filter="url(#filter4_i_0_407)">
<path d="M68.2069 111.775H72.7931V120.948H68.2069V111.775Z" fill="#CCFF00"/>
</g>
<g filter="url(#filter5_d_0_407)">
<path d="M8.58618 54.4482H45.2758C45.2758 66.1943 40.6097 77.4592 32.304 85.7649C30.879 87.1899 30.0784 89.1226 30.0784 91.1379C30.0784 93.1532 30.879 95.0859 32.304 96.5109C40.6097 104.817 45.2758 116.082 45.2758 127.828H8.58618C8.58619 116.082 13.2523 104.817 21.558 96.5109C22.983 95.0859 23.7836 93.1532 23.7836 91.1379C23.7836 89.1226 22.983 87.1899 21.558 85.7649C13.2523 77.4592 8.58619 66.1943 8.58618 54.4482Z" fill="white"/>
</g>
<rect x="4" y="45.2754" width="45.8621" height="9.17241" rx="4.58621" fill="#5EB700"/>
<rect x="4" y="127.827" width="45.8621" height="9.17241" rx="4.58621" fill="#5EB700"/>
<path d="M31.0698 87.3834C31.407 86.7917 31.8221 86.2479 32.3041 85.7668C34.1787 83.8919 35.8811 81.8524 37.3908 79.6729H16.4711C17.9809 81.8519 19.6834 83.8909 21.558 85.7653C22.0393 86.246 22.4538 86.789 22.7906 87.38C23.725 88.7467 25.2737 89.5643 26.9293 89.5649C28.5849 89.5656 30.1342 88.7493 31.0698 87.3834Z" fill="#CCFF00"/>
<g filter="url(#filter6_i_0_407)">
<path d="M43.2888 27.9512L47.2612 25.6576L49.5548 29.63L45.5824 31.9236L43.2888 27.9512Z" fill="#CCFF00"/>
</g>
<g filter="url(#filter7_i_0_407)">
<path d="M43.2854 113.056L45.5789 109.083L49.5513 111.377L47.2578 115.349L43.2854 113.056Z" fill="#CCFF00"/>
</g>
<g filter="url(#filter8_i_0_407)">
<path d="M91.4471 111.348L95.4195 109.055L97.7131 113.027L93.7407 115.321L91.4471 111.348Z" fill="#CCFF00"/>
</g>
<g filter="url(#filter9_i_0_407)">
<path d="M109.073 95.4333L111.367 91.4609L115.339 93.7545L113.045 97.7269L109.073 95.4333Z" fill="#CCFF00"/>
</g>
<g filter="url(#filter10_i_0_407)">
<path d="M109.067 45.5699L113.039 43.2764L115.332 47.2488L111.36 49.5423L109.067 45.5699Z" fill="#CCFF00"/>
</g>
<g filter="url(#filter11_i_0_407)">
<path d="M91.4506 29.6453L93.7441 25.6729L97.7165 27.9664L95.423 31.9388L91.4506 29.6453Z" fill="#CCFF00"/>
</g>
<path d="M96.5459 83.6654L94.0266 74.2679L89.5972 75.4546L90.683 79.5042L71.6465 68.5137L69.3534 72.4865L88.3899 83.4767L84.3391 84.5622L85.5261 88.9917L94.9247 86.4735C95.5124 86.3164 96.0135 85.9321 96.3176 85.4051C96.6218 84.8782 96.7039 84.252 96.5459 83.6645V83.6654Z" fill="#5EB700"/>
<path d="M70.5 75.0865C73.0329 75.0865 75.0862 73.0332 75.0862 70.5003C75.0862 67.9674 73.0329 65.9141 70.5 65.9141C67.9671 65.9141 65.9138 67.9674 65.9138 70.5003C65.9138 73.0332 67.9671 75.0865 70.5 75.0865Z" fill="#5EB700"/>
<path d="M8.58618 127.827L26.931 109.482L45.2758 127.827H8.58618Z" fill="#CCFF00"/>
<defs>
<filter id="filter0_d_0_407" x="0" y="0" width="141" height="141" filterUnits="userSpaceOnUse" color-interpolation-filters="sRGB">
<feFlood flood-opacity="0" result="BackgroundImageFix"/>
<feColorMatrix in="SourceAlpha" type="matrix" values="0 0 0 0 0 0 0 0 0 0 0 0 0 0 0 0 0 0 127 0" result="hardAlpha"/>
<feOffset/>
<feGaussianBlur stdDeviation="2"/>
<feColorMatrix type="matrix" values="0 0 0 0 0 0 0 0 0 0 0 0 0 0 0 0 0 0 0.2 0"/>
<feBlend mode="normal" in2="BackgroundImageFix" result="effect1_dropShadow_0_407"/>
<feBlend mode="normal" in="SourceGraphic" in2="effect1_dropShadow_0_407" result="shape"/>
</filter>
<filter id="filter1_i_0_407" x="8.17236" y="8.17285" width="124.655" height="124.655" filterUnits="userSpaceOnUse" color-interpolation-filters="sRGB">
<feFlood flood-opacity="0" result="BackgroundImageFix"/>
<feBlend mode="normal" in="SourceGraphic" in2="BackgroundImageFix" result="shape"/>
<feColorMatrix in="SourceAlpha" type="matrix" values="0 0 0 0 0 0 0 0 0 0 0 0 0 0 0 0 0 0 127 0" result="hardAlpha"/>
<feOffset/>
<feGaussianBlur stdDeviation="1.5"/>
<feComposite in2="hardAlpha" operator="arithmetic" k2="-1" k3="1"/>
<feColorMatrix type="matrix" values="0 0 0 0 0.27451 0 0 0 0 0.27451 0 0 0 0 0.27451 0 0 0 0.3 0"/>
<feBlend mode="normal" in2="shape" result="effect1_innerShadow_0_407"/>
</filter>
<filter id="filter2_i_0_407" x="68.2069" y="20.0518" width="4.58618" height="9.17285" filterUnits="userSpaceOnUse" color-interpolation-filters="sRGB">
<feFlood flood-opacity="0" result="BackgroundImageFix"/>
<feBlend mode="normal" in="SourceGraphic" in2="BackgroundImageFix" result="shape"/>
<feColorMatrix in="SourceAlpha" type="matrix" values="0 0 0 0 0 0 0 0 0 0 0 0 0 0 0 0 0 0 127 0" result="hardAlpha"/>
<feOffset/>
<feGaussianBlur stdDeviation="1.5"/>
<feComposite in2="hardAlpha" operator="arithmetic" k2="-1" k3="1"/>
<feColorMatrix type="matrix" values="0 0 0 0 0 0 0 0 0 0 0 0 0 0 0 0 0 0 0.17 0"/>
<feBlend mode="normal" in2="shape" result="effect1_innerShadow_0_407"/>
</filter>
<filter id="filter3_i_0_407" x="111.776" y="68.207" width="9.17236" height="4.58594" filterUnits="userSpaceOnUse" color-interpolation-filters="sRGB">
<feFlood flood-opacity="0" result="BackgroundImageFix"/>
<feBlend mode="normal" in="SourceGraphic" in2="BackgroundImageFix" result="shape"/>
<feColorMatrix in="SourceAlpha" type="matrix" values="0 0 0 0 0 0 0 0 0 0 0 0 0 0 0 0 0 0 127 0" result="hardAlpha"/>
<feOffset/>
<feGaussianBlur stdDeviation="1.5"/>
<feComposite in2="hardAlpha" operator="arithmetic" k2="-1" k3="1"/>
<feColorMatrix type="matrix" values="0 0 0 0 0 0 0 0 0 0 0 0 0 0 0 0 0 0 0.17 0"/>
<feBlend mode="normal" in2="shape" result="effect1_innerShadow_0_407"/>
</filter>
<filter id="filter4_i_0_407" x="68.2069" y="111.775" width="4.58618" height="9.17285" filterUnits="userSpaceOnUse" color-interpolation-filters="sRGB">
<feFlood flood-opacity="0" result="BackgroundImageFix"/>
<feBlend mode="normal" in="SourceGraphic" in2="BackgroundImageFix" result="shape"/>
<feColorMatrix in="SourceAlpha" type="matrix" values="0 0 0 0 0 0 0 0 0 0 0 0 0 0 0 0 0 0 127 0" result="hardAlpha"/>
<feOffset/>
<feGaussianBlur stdDeviation="1.5"/>
<feComposite in2="hardAlpha" operator="arithmetic" k2="-1" k3="1"/>
<feColorMatrix type="matrix" values="0 0 0 0 0 0 0 0 0 0 0 0 0 0 0 0 0 0 0.17 0"/>
<feBlend mode="normal" in2="shape" result="effect1_innerShadow_0_407"/>
</filter>
<filter id="filter5_d_0_407" x="4.58618" y="50.4482" width="44.6897" height="81.3789" filterUnits="userSpaceOnUse" color-interpolation-filters="sRGB">
<feFlood flood-opacity="0" result="BackgroundImageFix"/>
<feColorMatrix in="SourceAlpha" type="matrix" values="0 0 0 0 0 0 0 0 0 0 0 0 0 0 0 0 0 0 127 0" result="hardAlpha"/>
<feOffset/>
<feGaussianBlur stdDeviation="2"/>
<feColorMatrix type="matrix" values="0 0 0 0 0 0 0 0 0 0 0 0 0 0 0 0 0 0 0.2 0"/>
<feBlend mode="normal" in2="BackgroundImageFix" result="effect1_dropShadow_0_407"/>
<feBlend mode="normal" in="SourceGraphic" in2="effect1_dropShadow_0_407" result="shape"/>
</filter>
<filter id="filter6_i_0_407" x="43.2888" y="25.6572" width="6.26599" height="6.2666" filterUnits="userSpaceOnUse" color-interpolation-filters="sRGB">
<feFlood flood-opacity="0" result="BackgroundImageFix"/>
<feBlend mode="normal" in="SourceGraphic" in2="BackgroundImageFix" result="shape"/>
<feColorMatrix in="SourceAlpha" type="matrix" values="0 0 0 0 0 0 0 0 0 0 0 0 0 0 0 0 0 0 127 0" result="hardAlpha"/>
<feOffset/>
<feGaussianBlur stdDeviation="1.5"/>
<feComposite in2="hardAlpha" operator="arithmetic" k2="-1" k3="1"/>
<feColorMatrix type="matrix" values="0 0 0 0 0 0 0 0 0 0 0 0 0 0 0 0 0 0 0.17 0"/>
<feBlend mode="normal" in2="shape" result="effect1_innerShadow_0_407"/>
</filter>
<filter id="filter7_i_0_407" x="43.2854" y="109.083" width="6.26599" height="6.2666" filterUnits="userSpaceOnUse" color-interpolation-filters="sRGB">
<feFlood flood-opacity="0" result="BackgroundImageFix"/>
<feBlend mode="normal" in="SourceGraphic" in2="BackgroundImageFix" result="shape"/>
<feColorMatrix in="SourceAlpha" type="matrix" values="0 0 0 0 0 0 0 0 0 0 0 0 0 0 0 0 0 0 127 0" result="hardAlpha"/>
<feOffset/>
<feGaussianBlur stdDeviation="1.5"/>
<feComposite in2="hardAlpha" operator="arithmetic" k2="-1" k3="1"/>
<feColorMatrix type="matrix" values="0 0 0 0 0 0 0 0 0 0 0 0 0 0 0 0 0 0 0.17 0"/>
<feBlend mode="normal" in2="shape" result="effect1_innerShadow_0_407"/>
</filter>
<filter id="filter8_i_0_407" x="91.4471" y="109.055" width="6.26599" height="6.26562" filterUnits="userSpaceOnUse" color-interpolation-filters="sRGB">
<feFlood flood-opacity="0" result="BackgroundImageFix"/>
<feBlend mode="normal" in="SourceGraphic" in2="BackgroundImageFix" result="shape"/>
<feColorMatrix in="SourceAlpha" type="matrix" values="0 0 0 0 0 0 0 0 0 0 0 0 0 0 0 0 0 0 127 0" result="hardAlpha"/>
<feOffset/>
<feGaussianBlur stdDeviation="1.5"/>
<feComposite in2="hardAlpha" operator="arithmetic" k2="-1" k3="1"/>
<feColorMatrix type="matrix" values="0 0 0 0 0 0 0 0 0 0 0 0 0 0 0 0 0 0 0.17 0"/>
<feBlend mode="normal" in2="shape" result="effect1_innerShadow_0_407"/>
</filter>
<filter id="filter9_i_0_407" x="109.073" y="91.4609" width="6.26599" height="6.26562" filterUnits="userSpaceOnUse" color-interpolation-filters="sRGB">
<feFlood flood-opacity="0" result="BackgroundImageFix"/>
<feBlend mode="normal" in="SourceGraphic" in2="BackgroundImageFix" result="shape"/>
<feColorMatrix in="SourceAlpha" type="matrix" values="0 0 0 0 0 0 0 0 0 0 0 0 0 0 0 0 0 0 127 0" result="hardAlpha"/>
<feOffset/>
<feGaussianBlur stdDeviation="1.5"/>
<feComposite in2="hardAlpha" operator="arithmetic" k2="-1" k3="1"/>
<feColorMatrix type="matrix" values="0 0 0 0 0 0 0 0 0 0 0 0 0 0 0 0 0 0 0.17 0"/>
<feBlend mode="normal" in2="shape" result="effect1_innerShadow_0_407"/>
</filter>
<filter id="filter10_i_0_407" x="109.067" y="43.2764" width="6.26599" height="6.26562" filterUnits="userSpaceOnUse" color-interpolation-filters="sRGB">
<feFlood flood-opacity="0" result="BackgroundImageFix"/>
<feBlend mode="normal" in="SourceGraphic" in2="BackgroundImageFix" result="shape"/>
<feColorMatrix in="SourceAlpha" type="matrix" values="0 0 0 0 0 0 0 0 0 0 0 0 0 0 0 0 0 0 127 0" result="hardAlpha"/>
<feOffset/>
<feGaussianBlur stdDeviation="1.5"/>
<feComposite in2="hardAlpha" operator="arithmetic" k2="-1" k3="1"/>
<feColorMatrix type="matrix" values="0 0 0 0 0 0 0 0 0 0 0 0 0 0 0 0 0 0 0.17 0"/>
<feBlend mode="normal" in2="shape" result="effect1_innerShadow_0_407"/>
</filter>
<filter id="filter11_i_0_407" x="91.4506" y="25.6729" width="6.26599" height="6.26562" filterUnits="userSpaceOnUse" color-interpolation-filters="sRGB">
<feFlood flood-opacity="0" result="BackgroundImageFix"/>
<feBlend mode="normal" in="SourceGraphic" in2="BackgroundImageFix" result="shape"/>
<feColorMatrix in="SourceAlpha" type="matrix" values="0 0 0 0 0 0 0 0 0 0 0 0 0 0 0 0 0 0 127 0" result="hardAlpha"/>
<feOffset/>
<feGaussianBlur stdDeviation="1.5"/>
<feComposite in2="hardAlpha" operator="arithmetic" k2="-1" k3="1"/>
<feColorMatrix type="matrix" values="0 0 0 0 0 0 0 0 0 0 0 0 0 0 0 0 0 0 0.17 0"/>
<feBlend mode="normal" in2="shape" result="effect1_innerShadow_0_407"/>
</filter>
</defs>
</svg>
