<svg width="141" height="141" viewBox="0 0 141 141" fill="none" xmlns="http://www.w3.org/2000/svg">
<g filter="url(#filter0_d_0_433)">
<path d="M70.5 137C69.0427 137 67.7062 136.192 67.029 134.902L52.332 106.898H25.0262C13.4323 106.898 4 96.6981 4 84.1603V26.7378C4 14.2002 13.4323 4 25.0262 4H115.974C127.568 4 137 14.2002 137 26.7378V84.1603C137 96.6979 127.568 106.898 115.974 106.898H88.668L73.971 134.902C73.2938 136.192 71.9573 137 70.5 137Z" fill="white"/>
</g>
<g filter="url(#filter1_i_0_433)">
<path d="M46.5343 53.5094C48.7063 51.3332 50.0513 48.3315 50.0513 45.0216C50.0513 38.3929 44.658 33 38.0289 33C31.3998 33 26.0065 38.3929 26.0065 45.0216C26.0065 48.3317 27.3515 51.3334 29.5235 53.5094C22.1749 56.5912 17 63.8588 17 72.3126C17 75.4488 19.5517 78 22.688 78H53.3698C56.5061 78 59.0578 75.4486 59.0578 72.3124C59.0578 63.8588 53.8827 56.5912 46.5343 53.5094Z" fill="#CCFF00"/>
</g>
<g filter="url(#filter2_d_0_433)">
<path d="M72.5176 47.6562C72.4941 47.832 72.3594 47.9902 72.1133 48.1309C71.8672 48.2715 71.5625 48.3828 71.1992 48.4648C70.8359 48.5469 70.4434 48.5996 70.0215 48.623C69.6113 48.6348 69.2305 48.6055 68.8789 48.5352C68.5273 48.4648 68.2285 48.3477 67.9824 48.1836C67.7363 48.0195 67.6074 47.7969 67.5957 47.5156C67.5488 46.5664 67.6191 45.7109 67.8066 44.9492C68.0059 44.1758 68.293 43.4961 68.668 42.9102C69.0547 42.3125 69.5234 41.8027 70.0742 41.3809C70.625 40.959 71.2285 40.6133 71.8848 40.3438C72.5527 40.0742 73.2559 39.8809 73.9941 39.7637C74.7441 39.6465 75.5117 39.5996 76.2969 39.623C77.4453 39.6582 78.459 39.8398 79.3379 40.168C80.2285 40.4961 80.9844 40.9355 81.6055 41.4863C82.2266 42.0371 82.7188 42.6816 83.082 43.4199C83.457 44.1465 83.7031 44.9258 83.8203 45.7578C83.9141 46.4375 83.9258 47.1406 83.8555 47.8672C83.7852 48.5938 83.6094 49.2969 83.3281 49.9766C83.0469 50.6562 82.6426 51.2891 82.1152 51.875C81.5996 52.4609 80.9375 52.9473 80.1289 53.334C81.1602 53.5918 82.0801 53.9961 82.8887 54.5469C83.6973 55.0859 84.3828 55.748 84.9453 56.5332C85.5078 57.3184 85.9297 58.209 86.2109 59.2051C86.4922 60.1895 86.6211 61.2559 86.5977 62.4043C86.5742 63.4824 86.4043 64.4668 86.0879 65.3574C85.7832 66.248 85.3672 67.0449 84.8398 67.748C84.3125 68.4512 83.6973 69.0605 82.9941 69.5762C82.3027 70.0918 81.5586 70.5195 80.7617 70.8594C79.9648 71.1875 79.1328 71.4277 78.2656 71.5801C77.4102 71.7441 76.5664 71.8145 75.7344 71.791C74.8789 71.7676 74.0352 71.6504 73.2031 71.4395C72.3711 71.2402 71.5742 70.9473 70.8125 70.5605C70.0625 70.1621 69.3652 69.6816 68.7207 69.1191C68.0879 68.5449 67.5371 67.8828 67.0684 67.1328C66.5996 66.3828 66.2305 65.5508 65.9609 64.6367C65.7031 63.7109 65.5742 62.6973 65.5742 61.5957C65.5742 61.3496 65.7031 61.1504 65.9609 60.998C66.2305 60.8457 66.5645 60.7344 66.9629 60.6641C67.373 60.5938 67.8125 60.5645 68.2812 60.5762C68.75 60.5879 69.1836 60.6406 69.582 60.7344C69.9922 60.8281 70.332 60.9688 70.6016 61.1562C70.8828 61.332 71.0293 61.5488 71.041 61.8066C71.0762 62.3926 71.2051 62.9609 71.4277 63.5117C71.6621 64.0508 71.9902 64.5371 72.4121 64.9707C72.834 65.3926 73.3438 65.7383 73.9414 66.0078C74.5391 66.2656 75.2188 66.4004 75.9805 66.4121C76.6602 66.4238 77.2988 66.3066 77.8965 66.0605C78.4941 65.8027 79.0098 65.4629 79.4434 65.041C79.8887 64.6191 80.2285 64.1328 80.4629 63.582C80.6973 63.0195 80.7969 62.4453 80.7617 61.8594C80.7031 61.0273 80.4922 60.2949 80.1289 59.6621C79.7656 59.0176 79.2676 58.4785 78.6348 58.0449C78.002 57.5996 77.2402 57.2539 76.3496 57.0078C75.4707 56.7617 74.4805 56.6152 73.3789 56.5684C73.168 56.5566 72.9805 56.416 72.8164 56.1465C72.6523 55.877 72.5176 55.543 72.4121 55.1445C72.3184 54.7344 72.2598 54.3008 72.2363 53.8438C72.2129 53.375 72.2305 52.9414 72.2891 52.543C72.3594 52.1445 72.4766 51.8164 72.6406 51.5586C72.8047 51.3008 73.0215 51.1719 73.291 51.1719C74.3691 51.1953 75.2891 51.0488 76.0508 50.7324C76.8242 50.416 77.4395 50.0176 77.8965 49.5371C78.3652 49.0566 78.6758 48.5293 78.8281 47.9551C78.9922 47.3809 78.998 46.8535 78.8457 46.373C78.6934 45.8809 78.3828 45.4766 77.9141 45.1602C77.457 44.832 76.8477 44.6738 76.0859 44.6855C75.5469 44.6855 75.0664 44.7676 74.6445 44.9316C74.2344 45.084 73.877 45.2949 73.5723 45.5645C73.2793 45.834 73.0391 46.1504 72.8516 46.5137C72.6758 46.877 72.5645 47.2578 72.5176 47.6562ZM98.9023 40.5898C98.9023 40.5898 98.9082 40.6074 98.9199 40.6426C98.9434 40.6777 98.9844 40.7773 99.043 40.9414C99.1133 41.1055 99.2129 41.3574 99.3418 41.6973C99.4824 42.0371 99.6758 42.5117 99.9219 43.1211C100.168 43.7305 100.479 44.5039 100.854 45.4414C101.229 46.3789 101.686 47.5215 102.225 48.8691C102.775 50.2168 103.414 51.7988 104.141 53.6152C104.879 55.4199 105.729 57.5059 106.689 59.873C107.662 57.4824 108.518 55.3789 109.256 53.5625C109.994 51.7344 110.633 50.1465 111.172 48.7988C111.723 47.4395 112.186 46.2969 112.561 45.3711C112.947 44.4336 113.258 43.666 113.492 43.0684C113.738 42.459 113.926 41.9902 114.055 41.6621C114.195 41.3223 114.295 41.0762 114.354 40.9238C114.424 40.7598 114.465 40.666 114.477 40.6426C114.488 40.6074 114.494 40.5898 114.494 40.5898C114.576 40.3906 114.775 40.2266 115.092 40.0977C115.408 39.957 115.777 39.8574 116.199 39.7988C116.633 39.7285 117.084 39.6992 117.553 39.7109C118.033 39.7109 118.473 39.7461 118.871 39.8164C119.281 39.8867 119.621 39.9922 119.891 40.1328C120.172 40.2734 120.33 40.4434 120.365 40.6426C120.4 40.8652 120.459 41.2812 120.541 41.8906C120.623 42.5 120.717 43.2441 120.822 44.123C120.939 45.002 121.068 45.9922 121.209 47.0938C121.361 48.1953 121.514 49.3613 121.666 50.5918C121.818 51.8105 121.977 53.0645 122.141 54.3535C122.316 55.6426 122.486 56.9199 122.65 58.1855C122.814 59.4395 122.967 60.6582 123.107 61.8418C123.26 63.0137 123.4 64.0918 123.529 65.0762C123.658 66.0605 123.77 66.9277 123.863 67.6777C123.969 68.4277 124.051 69.002 124.109 69.4004C124.168 69.8105 124.057 70.1562 123.775 70.4375C123.506 70.7188 123.148 70.9414 122.703 71.1055C122.258 71.2695 121.766 71.375 121.227 71.4219C120.688 71.4805 120.178 71.4805 119.697 71.4219C119.229 71.375 118.824 71.2695 118.484 71.1055C118.156 70.9531 117.98 70.7539 117.957 70.5078L115.936 53.2988C115.502 54.4004 115.062 55.5254 114.617 56.6738C114.184 57.8105 113.75 58.9297 113.316 60.0312C112.883 61.1211 112.467 62.1816 112.068 63.2129C111.67 64.2324 111.301 65.1699 110.961 66.0254C110.621 66.8691 110.316 67.6191 110.047 68.2754C109.789 68.9199 109.584 69.4238 109.432 69.7871C109.35 69.9746 109.168 70.1328 108.887 70.2617C108.605 70.3789 108.277 70.4727 107.902 70.543C107.527 70.6016 107.123 70.6309 106.689 70.6309C106.268 70.6309 105.863 70.6016 105.477 70.543C105.102 70.4844 104.773 70.3906 104.492 70.2617C104.223 70.1328 104.047 69.9746 103.965 69.7871C103.812 69.4238 103.602 68.9199 103.332 68.2754C103.074 67.6191 102.775 66.8691 102.436 66.0254C102.096 65.1699 101.727 64.2324 101.328 63.2129C100.93 62.1816 100.514 61.1211 100.08 60.0312C99.6465 58.9297 99.207 57.8105 98.7617 56.6738C98.3164 55.5254 97.8828 54.4004 97.4609 53.2988L95.4395 70.5078C95.4043 70.7539 95.2227 70.9531 94.8945 71.1055C94.5664 71.2695 94.1621 71.375 93.6816 71.4219C93.2129 71.4805 92.709 71.4805 92.1699 71.4219C91.6309 71.375 91.1387 71.2695 90.6934 71.1055C90.248 70.9414 89.8848 70.7188 89.6035 70.4375C89.334 70.1562 89.2285 69.8105 89.2871 69.4004C89.3457 69.002 89.4219 68.4277 89.5156 67.6777C89.6211 66.9277 89.7383 66.0605 89.8672 65.0762C89.9961 64.0918 90.1309 63.0137 90.2715 61.8418C90.4238 60.6582 90.582 59.4395 90.7461 58.1855C90.9102 56.9199 91.0742 55.6426 91.2383 54.3535C91.4141 53.0645 91.5781 51.8105 91.7305 50.5918C91.8828 49.3613 92.0293 48.1953 92.1699 47.0938C92.3223 45.9922 92.4512 45.002 92.5566 44.123C92.6738 43.2441 92.7734 42.5 92.8555 41.8906C92.9375 41.2812 92.9961 40.8652 93.0312 40.6426C93.0664 40.4434 93.2188 40.2734 93.4883 40.1328C93.7695 39.9922 94.1094 39.8867 94.5078 39.8164C94.918 39.7461 95.3574 39.7109 95.8262 39.7109C96.3066 39.6992 96.7578 39.7285 97.1797 39.7988C97.6133 39.8574 97.9824 39.957 98.2871 40.0977C98.6035 40.2266 98.8086 40.3906 98.9023 40.5898Z" fill="#5EB700"/>
</g>
<defs>
<filter id="filter0_d_0_433" x="0" y="0" width="141" height="141" filterUnits="userSpaceOnUse" color-interpolation-filters="sRGB">
<feFlood flood-opacity="0" result="BackgroundImageFix"/>
<feColorMatrix in="SourceAlpha" type="matrix" values="0 0 0 0 0 0 0 0 0 0 0 0 0 0 0 0 0 0 127 0" result="hardAlpha"/>
<feOffset/>
<feGaussianBlur stdDeviation="2"/>
<feColorMatrix type="matrix" values="0 0 0 0 0 0 0 0 0 0 0 0 0 0 0 0 0 0 0.2 0"/>
<feBlend mode="normal" in2="BackgroundImageFix" result="effect1_dropShadow_0_433"/>
<feBlend mode="normal" in="SourceGraphic" in2="effect1_dropShadow_0_433" result="shape"/>
</filter>
<filter id="filter1_i_0_433" x="17" y="33" width="42.0577" height="45" filterUnits="userSpaceOnUse" color-interpolation-filters="sRGB">
<feFlood flood-opacity="0" result="BackgroundImageFix"/>
<feBlend mode="normal" in="SourceGraphic" in2="BackgroundImageFix" result="shape"/>
<feColorMatrix in="SourceAlpha" type="matrix" values="0 0 0 0 0 0 0 0 0 0 0 0 0 0 0 0 0 0 127 0" result="hardAlpha"/>
<feOffset/>
<feGaussianBlur stdDeviation="2"/>
<feComposite in2="hardAlpha" operator="arithmetic" k2="-1" k3="1"/>
<feColorMatrix type="matrix" values="0 0 0 0 0.27451 0 0 0 0 0.27451 0 0 0 0 0.27451 0 0 0 0.4 0"/>
<feBlend mode="normal" in2="shape" result="effect1_innerShadow_0_433"/>
</filter>
<filter id="filter2_d_0_433" x="59.5742" y="37.5879" width="70.623" height="44.2383" filterUnits="userSpaceOnUse" color-interpolation-filters="sRGB">
<feFlood flood-opacity="0" result="BackgroundImageFix"/>
<feColorMatrix in="SourceAlpha" type="matrix" values="0 0 0 0 0 0 0 0 0 0 0 0 0 0 0 0 0 0 127 0" result="hardAlpha"/>
<feOffset dy="4"/>
<feGaussianBlur stdDeviation="3"/>
<feColorMatrix type="matrix" values="0 0 0 0 0.255013 0 0 0 0 0.496462 0 0 0 0 0 0 0 0 0.2 0"/>
<feBlend mode="normal" in2="BackgroundImageFix" result="effect1_dropShadow_0_433"/>
<feBlend mode="normal" in="SourceGraphic" in2="effect1_dropShadow_0_433" result="shape"/>
</filter>
</defs>
</svg>
