<svg width="124" height="124" viewBox="0 0 124 124" fill="none" xmlns="http://www.w3.org/2000/svg">
<g filter="url(#filter0_d_0_1690)">
<path d="M92.8291 106.356C72.2971 108.548 51.7029 108.548 31.1709 106.356C22.9839 105.483 16.5173 99.0161 15.6436 90.8284C13.4521 70.2964 13.4521 49.7029 15.6436 29.1709C16.5173 20.9839 22.9839 14.5173 31.1709 13.6436C51.7029 11.4521 72.2964 11.4521 92.8284 13.6436C101.016 14.5173 107.483 20.9839 108.356 29.1709C110.548 49.7029 110.548 70.2964 108.356 90.8284C107.483 99.0161 101.017 105.483 92.8291 106.356Z" fill="url(#paint0_linear_0_1690)"/>
</g>
<path d="M103.545 32.2035C102.772 24.9545 97.0464 19.2286 89.7967 18.4547C71.617 16.5151 53.3832 16.5151 35.2035 18.4547C27.9545 19.2286 22.2286 24.9545 21.4547 32.2035C19.5151 50.3832 19.5151 68.617 21.4547 86.796C22.2286 94.0456 27.9545 99.7716 35.2035 100.545C53.3832 102.485 71.617 102.485 89.796 100.545C97.0456 99.7716 102.772 94.0456 103.545 86.796C105.485 68.617 105.485 50.3832 103.545 32.2035Z" fill="url(#paint1_linear_0_1690)"/>
<path d="M16 89C16.0658 89.658 16.1339 90.316 16.2048 90.9739C17.0774 99.0919 23.5354 105.504 31.7122 106.37C52.2169 108.543 72.7831 108.543 93.2878 106.37C101.465 105.504 107.922 99.0919 108.794 90.9739C108.865 90.316 108.933 89.658 109 89H16Z" fill="url(#paint2_linear_0_1690)"/>
<path d="M78.3995 28C69.9976 28 63.187 34.7801 63.187 43.1436V54.4548H55V68.4596L63.187 75.7589V108C73.0471 107.952 82.9064 107.407 92.7525 106.361C100.977 105.487 107.472 99.0214 108.35 90.8344C109.987 75.559 110.406 60.2499 109.606 44.9569L92.5716 28L78.3995 28Z" fill="url(#paint3_linear_0_1690)"/>
<path d="M63.0625 108C68.5957 107.973 74.1282 107.783 79.6585 107.432V68.4596H90.6698L92 54.4548H79.6585V45.5618C79.6585 43.5976 81.2336 42.0055 83.1767 42.0055H92V28H78.0435C69.7694 28 63.0625 34.7801 63.0625 43.1436V54.4548H55V68.4596H63.0625V108Z" fill="white"/>
<defs>
<filter id="filter0_d_0_1690" x="0" y="0" width="124" height="124" filterUnits="userSpaceOnUse" color-interpolation-filters="sRGB">
<feFlood flood-opacity="0" result="BackgroundImageFix"/>
<feColorMatrix in="SourceAlpha" type="matrix" values="0 0 0 0 0 0 0 0 0 0 0 0 0 0 0 0 0 0 127 0" result="hardAlpha"/>
<feOffset dy="2"/>
<feGaussianBlur stdDeviation="7"/>
<feColorMatrix type="matrix" values="0 0 0 0 0.223529 0 0 0 0 0.341176 0 0 0 0 0.596078 0 0 0 0.5 0"/>
<feBlend mode="normal" in2="BackgroundImageFix" result="effect1_dropShadow_0_1690"/>
<feBlend mode="normal" in="SourceGraphic" in2="effect1_dropShadow_0_1690" result="shape"/>
</filter>
<linearGradient id="paint0_linear_0_1690" x1="19.8987" y1="37.638" x2="44.1798" y2="89.5884" gradientUnits="userSpaceOnUse">
<stop stop-color="#3457A0"/>
<stop offset="1" stop-color="#3B5998"/>
</linearGradient>
<linearGradient id="paint1_linear_0_1690" x1="109.438" y1="30.1174" x2="25.7025" y2="-27.4169" gradientUnits="userSpaceOnUse">
<stop stop-color="#3457A0" stop-opacity="0.01"/>
<stop offset="1" stop-color="#1F3F77"/>
</linearGradient>
<linearGradient id="paint2_linear_0_1690" x1="30.9749" y1="92.3593" x2="30.9749" y2="105.24" gradientUnits="userSpaceOnUse">
<stop stop-color="#3457A0" stop-opacity="0.01"/>
<stop offset="1" stop-color="#1F3F77"/>
</linearGradient>
<linearGradient id="paint3_linear_0_1690" x1="135.821" y1="42.6089" x2="64.9105" y2="25.786" gradientUnits="userSpaceOnUse">
<stop stop-color="#3457A0" stop-opacity="0.01"/>
<stop offset="0.3251" stop-color="#2A4C8D" stop-opacity="0.32549"/>
<stop offset="0.7045" stop-color="#22427D" stop-opacity="0.705882"/>
<stop offset="1" stop-color="#1F3F77"/>
</linearGradient>
</defs>
</svg>
