<svg width="124" height="124" viewBox="0 0 124 124" fill="none" xmlns="http://www.w3.org/2000/svg">
<g filter="url(#filter0_d_0_1724)">
<path d="M108.356 29.1709C107.483 20.9839 101.017 14.5166 92.8291 13.6436C72.2964 11.4521 51.7036 11.4521 31.1716 13.6436C22.9839 14.5173 16.5173 20.9839 15.6436 29.1709C13.4521 49.7029 13.4521 70.2964 15.6436 90.8284C16.5173 99.0161 22.9839 105.483 31.1709 106.356C51.7029 108.548 72.2964 108.548 92.8291 106.356C101.017 105.483 107.483 99.0161 108.356 90.8284C110.548 70.2964 110.548 49.7036 108.356 29.1709Z" fill="url(#paint0_radial_0_1724)"/>
</g>
<path d="M103.135 32.6432C102.36 25.3783 96.6222 19.6398 89.3566 18.8641C71.1368 16.9203 52.8629 16.9203 34.6432 18.8641C27.3783 19.6398 21.6398 25.3783 20.8641 32.6432C18.9203 50.8629 18.9203 69.1368 20.8641 87.3558C21.6398 94.6215 27.3783 100.36 34.6432 101.135C52.8629 103.079 71.1368 103.079 89.3558 101.135C96.6215 100.36 102.36 94.6215 103.135 87.3558C105.079 69.1368 105.079 50.8629 103.135 32.6432Z" fill="url(#paint1_linear_0_1724)"/>
<path d="M15.4385 88.8379C15.5044 89.5015 15.5725 90.165 15.6436 90.8286C16.5173 99.0156 22.9839 105.482 31.1716 106.356C51.7036 108.547 72.2971 108.547 92.8291 106.356C101.017 105.482 107.483 99.0156 108.356 90.8286C108.427 90.165 108.496 89.5015 108.562 88.8379H15.4385Z" fill="url(#paint2_linear_0_1724)"/>
<path d="M108.356 90.8285C109.534 79.796 110.078 68.746 109.99 57.6974L88.0464 35.754C85.3049 32.6244 81.3008 30.671 76.5957 30.5018C66.9197 30.1532 57.2129 30.1708 47.5354 30.5033C39.4978 30.7801 33.8772 36.1825 32.4358 44.1227C32.1816 45.5245 32.0293 46.9447 31.8293 48.3568V71.6346C31.9399 72.389 32.1025 73.1398 32.1531 73.8985C32.4753 78.7281 34.4602 82.8649 37.6382 85.6634L59.9683 107.993C70.9268 108.07 81.886 107.525 92.8291 106.357C101.017 105.483 107.483 99.0162 108.356 90.8285Z" fill="url(#paint3_linear_0_1724)"/>
<path d="M108.356 90.8291C107.483 99.0154 101.015 105.483 92.8291 106.356C81.8875 107.524 70.926 108.07 59.969 107.993L37.6726 85.6963C40.2573 87.9587 43.6265 89.3364 47.5361 89.4836C57.2114 89.8469 66.9204 89.8374 76.5957 89.4888C85.3467 89.1724 91.6792 82.6956 91.9524 73.9446C92.2439 64.6531 92.2439 55.3374 91.9524 46.0459C91.8279 42.0088 90.4106 38.4565 88.061 35.7686L109.99 57.698C110.077 68.7451 109.533 79.7966 108.356 90.8291Z" fill="url(#paint4_linear_0_1724)"/>
<path d="M73.3276 49.6042C70.5166 46.5435 66.4832 44.623 62 44.623C53.5083 44.623 46.6235 51.5078 46.6235 59.9995C46.6235 64.4827 48.5439 68.5161 51.6047 71.3271L87.1807 106.903C89.0637 106.739 90.9468 106.557 92.8284 106.356C101.016 105.482 107.483 99.0156 108.356 90.8279C108.557 88.9463 108.74 87.0632 108.904 85.1802L73.3276 49.6042Z" fill="url(#paint5_linear_0_1724)"/>
<path d="M109.814 70.3406L81.1821 41.7095C80.5142 40.8328 79.4617 40.2637 78.2744 40.2637C76.2544 40.2637 74.616 41.9014 74.616 43.9221C74.616 45.1094 75.1851 46.1619 76.0618 46.8298L109.302 80.0708C109.528 76.8284 109.698 73.5845 109.814 70.3406Z" fill="url(#paint6_linear_0_1724)"/>
<path fill-rule="evenodd" clip-rule="evenodd" d="M32.0106 47.0066C31.9518 47.4569 31.893 47.9073 31.8293 48.3568V71.6339C31.8644 71.8729 31.9047 72.1117 31.9449 72.3505C32.0317 72.8652 32.1186 73.38 32.1531 73.8978C32.7383 82.662 38.7866 89.1542 47.5361 89.483C57.2114 89.8463 66.9204 89.8375 76.5964 89.4881C85.3459 89.1725 91.6792 82.6957 91.9524 73.9447C92.2432 64.6525 92.2432 55.3375 91.9524 46.0453C91.6792 37.2943 85.3438 30.8168 76.5957 30.5018C66.9197 30.1532 57.2129 30.1708 47.5354 30.5033C39.4978 30.7801 33.8765 36.1825 32.4358 44.1227C32.2625 45.0783 32.1366 46.0424 32.0106 47.0066ZM66.1192 84.3273C64.7487 84.3146 63.3782 84.3019 62.0081 84.3019C60.6557 84.3019 59.3029 84.3145 57.9501 84.3271C54.9287 84.3553 51.9073 84.3834 48.8911 84.2711C42.0122 84.0162 37.7349 79.963 37.5481 73.1141C37.3108 64.3734 37.3108 55.6173 37.5481 46.8766C37.7349 40.027 42.0122 35.8778 48.8904 35.7335C57.6875 35.5489 66.4941 35.5475 75.2913 35.7335C82.2222 35.8807 86.49 40.1156 86.6519 47.0414C86.8525 55.6737 86.8525 64.317 86.6519 72.9486C86.49 79.8758 82.2251 84.014 75.2913 84.2711C72.2372 84.3839 69.1782 84.3556 66.1192 84.3273Z" fill="url(#paint7_linear_0_1724)"/>
<path fill-rule="evenodd" clip-rule="evenodd" d="M32.0106 47.0066C31.9518 47.4569 31.893 47.9073 31.8293 48.3568V71.6339C31.8644 71.8729 31.9047 72.1117 31.9449 72.3505C32.0317 72.8652 32.1186 73.38 32.1531 73.8978C32.7383 82.662 38.7866 89.1542 47.5361 89.483C57.2114 89.8463 66.9204 89.8375 76.5964 89.4881C85.3459 89.1725 91.6792 82.6957 91.9524 73.9447C92.2432 64.6525 92.2432 55.3375 91.9524 46.0453C91.6792 37.2943 85.3438 30.8168 76.5957 30.5018C66.9197 30.1532 57.2129 30.1708 47.5354 30.5033C39.4978 30.7801 33.8765 36.1825 32.4358 44.1227C32.2625 45.0783 32.1366 46.0424 32.0106 47.0066ZM66.1192 84.3273C64.7487 84.3146 63.3782 84.3019 62.0081 84.3019C60.6557 84.3019 59.3029 84.3145 57.9501 84.3271C54.9287 84.3553 51.9073 84.3834 48.8911 84.2711C42.0122 84.0162 37.7349 79.963 37.5481 73.1141C37.3108 64.3734 37.3108 55.6173 37.5481 46.8766C37.7349 40.027 42.0122 35.8778 48.8904 35.7335C57.6875 35.5489 66.4941 35.5475 75.2913 35.7335C82.2222 35.8807 86.49 40.1156 86.6519 47.0414C86.8525 55.6737 86.8525 64.317 86.6519 72.9486C86.49 79.8758 82.2251 84.014 75.2913 84.2711C72.2372 84.3839 69.1782 84.3556 66.1192 84.3273Z" fill="white"/>
<path fill-rule="evenodd" clip-rule="evenodd" d="M46.6235 59.9998C46.6235 51.5081 53.5083 44.624 62 44.624C70.4924 44.624 77.3765 51.5081 77.3765 59.9998C77.3765 68.4922 70.4924 75.3762 62 75.3762C53.5083 75.3762 46.6235 68.4922 46.6235 59.9998ZM51.9175 59.9998C51.9175 65.5684 56.4314 70.0823 62 70.0823C67.5686 70.0823 72.0825 65.5684 72.0825 59.9998C72.0825 54.4312 67.5686 49.9172 62 49.9172C56.4314 49.9172 51.9175 54.4312 51.9175 59.9998Z" fill="white"/>
<path d="M81.9321 43.9221C81.9321 45.9421 80.2944 47.5798 78.2744 47.5798C76.2544 47.5798 74.616 45.9421 74.616 43.9221C74.616 41.9014 76.2544 40.2637 78.2744 40.2637C80.2944 40.2637 81.9321 41.9014 81.9321 43.9221Z" fill="white"/>
<defs>
<filter id="filter0_d_0_1724" x="0" y="0" width="124" height="124" filterUnits="userSpaceOnUse" color-interpolation-filters="sRGB">
<feFlood flood-opacity="0" result="BackgroundImageFix"/>
<feColorMatrix in="SourceAlpha" type="matrix" values="0 0 0 0 0 0 0 0 0 0 0 0 0 0 0 0 0 0 127 0" result="hardAlpha"/>
<feOffset dy="2"/>
<feGaussianBlur stdDeviation="7"/>
<feColorMatrix type="matrix" values="0 0 0 0 0.796078 0 0 0 0 0.121569 0 0 0 0 0.592157 0 0 0 0.5 0"/>
<feBlend mode="normal" in2="BackgroundImageFix" result="effect1_dropShadow_0_1724"/>
<feBlend mode="normal" in="SourceGraphic" in2="effect1_dropShadow_0_1724" result="shape"/>
</filter>
<radialGradient id="paint0_radial_0_1724" cx="0" cy="0" r="1" gradientUnits="userSpaceOnUse" gradientTransform="translate(33.6795 95.8964) scale(105.871)">
<stop stop-color="#FAE100"/>
<stop offset="0.0544" stop-color="#FADC04"/>
<stop offset="0.1167" stop-color="#FBCE0E"/>
<stop offset="0.1829" stop-color="#FCB720"/>
<stop offset="0.2514" stop-color="#FE9838"/>
<stop offset="0.3054" stop-color="#FF7950"/>
<stop offset="0.4922" stop-color="#FF1C74"/>
<stop offset="1" stop-color="#6C1CD1"/>
</radialGradient>
<linearGradient id="paint1_linear_0_1724" x1="96.5609" y1="-27.6066" x2="-66.0744" y2="-119.089" gradientUnits="userSpaceOnUse">
<stop stop-color="#A1B5D8" stop-opacity="0.01"/>
<stop offset="0.3094" stop-color="#90A2BD" stop-opacity="0.309804"/>
<stop offset="0.7554" stop-color="#7C8B9C" stop-opacity="0.756863"/>
<stop offset="1" stop-color="#748290"/>
</linearGradient>
<linearGradient id="paint2_linear_0_1724" x1="25.6383" y1="96.7432" x2="25.6383" y2="111.707" gradientUnits="userSpaceOnUse">
<stop stop-color="#FAE100" stop-opacity="0.01"/>
<stop offset="0.3068" stop-color="#FCA800" stop-opacity="0.305882"/>
<stop offset="0.6275" stop-color="#FE7300" stop-opacity="0.627451"/>
<stop offset="0.8685" stop-color="#FF5200" stop-opacity="0.866667"/>
<stop offset="1" stop-color="#FF4500"/>
</linearGradient>
<linearGradient id="paint3_linear_0_1724" x1="68.4815" y1="42.587" x2="44.8507" y2="18.7022" gradientUnits="userSpaceOnUse">
<stop stop-color="#833AB4" stop-opacity="0.01"/>
<stop offset="1" stop-color="#833AB4"/>
</linearGradient>
<linearGradient id="paint4_linear_0_1724" x1="107.782" y1="93.8826" x2="95.9539" y2="37.9732" gradientUnits="userSpaceOnUse">
<stop stop-color="#833AB4" stop-opacity="0.01"/>
<stop offset="1" stop-color="#833AB4"/>
</linearGradient>
<linearGradient id="paint5_linear_0_1724" x1="108.121" y1="58.4907" x2="60.4912" y2="10.8612" gradientUnits="userSpaceOnUse">
<stop stop-color="#833AB4" stop-opacity="0.01"/>
<stop offset="1" stop-color="#833AB4"/>
</linearGradient>
<linearGradient id="paint6_linear_0_1724" x1="94.802" y1="44.58" x2="77.3845" y2="30.9625" gradientUnits="userSpaceOnUse">
<stop stop-color="#833AB4" stop-opacity="0.01"/>
<stop offset="1" stop-color="#833AB4"/>
</linearGradient>
<linearGradient id="paint7_linear_0_1724" x1="61.3712" y1="21.9236" x2="23.0858" y2="61.2915" gradientUnits="userSpaceOnUse">
<stop stop-color="#833AB4"/>
<stop offset="0.0922" stop-color="#9C3495"/>
<stop offset="0.2927" stop-color="#DC2546"/>
<stop offset="0.392" stop-color="#FD1D1D"/>
<stop offset="0.5589" stop-color="#FC6831"/>
<stop offset="0.6887" stop-color="#FC9B40"/>
<stop offset="0.7521" stop-color="#FCAF45"/>
<stop offset="0.7806" stop-color="#FDB750"/>
<stop offset="0.8656" stop-color="#FECB6A"/>
<stop offset="0.9415" stop-color="#FFD87A"/>
<stop offset="1" stop-color="#FFDC80"/>
</linearGradient>
</defs>
</svg>
