<svg width="124" height="124" viewBox="0 0 124 124" fill="none" xmlns="http://www.w3.org/2000/svg">
<g filter="url(#filter0_d_0_1743)">
<path d="M92.8291 106.356C72.2971 108.548 51.7029 108.548 31.1709 106.356C22.9839 105.483 16.5173 99.0161 15.6436 90.8284C13.4521 70.2964 13.4521 49.7029 15.6436 29.1709C16.5173 20.9839 22.9839 14.5173 31.1709 13.6436C51.7029 11.4521 72.2964 11.4521 92.8284 13.6436C101.016 14.5173 107.483 20.9839 108.356 29.1709C110.548 49.7029 110.548 70.2964 108.356 90.8284C107.483 99.0161 101.017 105.483 92.8291 106.356Z" fill="url(#paint0_linear_0_1743)"/>
</g>
<path d="M103.135 32.6432C102.36 25.3783 96.6222 19.6398 89.3566 18.8641C71.1368 16.9203 52.8629 16.9203 34.6432 18.8641C27.3783 19.6398 21.6398 25.3783 20.8641 32.6432C18.9203 50.8629 18.9203 69.1368 20.8641 87.3558C21.6398 94.6215 27.3783 100.36 34.6432 101.135C52.8629 103.079 71.1368 103.079 89.3558 101.135C96.6215 100.36 102.36 94.6215 103.135 87.3558C105.079 69.1368 105.079 50.8629 103.135 32.6432Z" fill="url(#paint1_linear_0_1743)"/>
<path d="M15.4385 88.8379C15.5044 89.5015 15.5725 90.165 15.6436 90.8286C16.5173 99.0156 22.9839 105.482 31.1716 106.356C51.7036 108.547 72.2971 108.547 92.8291 106.356C101.017 105.482 107.483 99.0156 108.356 90.8286C108.427 90.165 108.496 89.5015 108.562 88.8379H15.4385Z" fill="url(#paint2_linear_0_1743)"/>
<path d="M109.979 56.627L90.0525 36.7007C87.8193 37.9773 85.8513 38.6855 84.3689 39.0781C83.5354 39.3015 82.855 39.4231 82.3657 39.4897C80.1187 37.1863 76.981 35.7559 73.5078 35.7559C66.6743 35.7559 61.1335 41.2959 61.1335 48.1309C61.1335 48.3777 61.1401 48.6216 61.1562 48.8647C61.1892 49.4573 61.2646 50.0396 61.3811 50.6057C58.5283 50.5632 49.2559 49.8015 40.4126 42.2209C40.4119 42.2209 40.4119 42.2202 40.4119 42.2202H40.4111L36.2407 38.0491C36.2407 38.0491 31.3481 46.5884 38.5413 53.0681C38.8569 53.4204 39.2041 53.7683 39.5842 54.1104C39.6143 54.144 39.6458 54.177 39.6758 54.2107C38.7317 54.147 35.8921 53.8643 34.2485 52.7034C34.2485 52.7034 33.9182 57.9226 38.2666 61.7649L41.7778 65.3062C40.7085 65.3948 39.5256 65.3735 38.7031 65.0132C38.7031 65.0132 39.4312 68.1047 42.2451 70.5789L47.1641 75.5234C44.2131 77.2424 39.0474 79.3936 32.2476 78.8442L62.0872 108C72.3396 107.998 82.592 107.45 92.8291 106.357C101.017 105.483 107.483 99.0166 108.357 90.8296C109.572 79.4404 110.112 68.0322 109.979 56.627Z" fill="url(#paint3_linear_0_1743)"/>
<path d="M91.7532 41.5068C89.6292 42.6179 86.4299 43.1313 85.3694 43.2793C85.3606 43.228 85.3518 43.179 85.343 43.1299C88.9487 40.8997 90.0525 36.7007 90.0525 36.7007C87.8193 37.9773 85.8513 38.6855 84.3689 39.0781C83.5354 39.3015 82.855 39.4224 82.3657 39.4897C80.1187 37.1855 76.981 35.7559 73.5078 35.7559C66.6743 35.7559 61.1335 41.2952 61.1335 48.1309C61.1335 48.377 61.1401 48.6216 61.1562 48.864C61.1892 49.4565 61.2646 50.0388 61.3811 50.605C58.0735 50.5559 46.1343 49.5415 36.2407 38.0491C36.2407 38.0491 30.7314 47.6614 39.9937 54.2275C39.9937 54.2275 36.2407 54.1104 34.2485 52.7034C34.2485 52.7034 33.6626 61.9656 44.3303 64.8953C44.3303 64.8953 40.5796 65.8342 38.7024 65.0132C38.7024 65.0132 40.5789 72.9849 49.9575 73.5723C49.9575 73.5723 43.231 79.7305 32.2468 78.8442C37.6492 82.2646 44.0542 84.2444 50.9214 84.2444C70.2302 84.2444 85.8835 68.5918 85.8835 49.283C85.8835 49.042 85.8813 48.801 85.8762 48.5601C85.8813 48.4172 85.8835 48.2751 85.8835 48.1309C85.8835 48.0305 85.8813 47.9302 85.8799 47.8298C89.4497 45.4509 91.7532 41.5068 91.7532 41.5068Z" fill="white"/>
<defs>
<filter id="filter0_d_0_1743" x="0" y="0" width="124" height="124" filterUnits="userSpaceOnUse" color-interpolation-filters="sRGB">
<feFlood flood-opacity="0" result="BackgroundImageFix"/>
<feColorMatrix in="SourceAlpha" type="matrix" values="0 0 0 0 0 0 0 0 0 0 0 0 0 0 0 0 0 0 127 0" result="hardAlpha"/>
<feOffset dy="2"/>
<feGaussianBlur stdDeviation="7"/>
<feColorMatrix type="matrix" values="0 0 0 0 0 0 0 0 0 0.764706 0 0 0 0 1 0 0 0 0.5 0"/>
<feBlend mode="normal" in2="BackgroundImageFix" result="effect1_dropShadow_0_1743"/>
<feBlend mode="normal" in="SourceGraphic" in2="effect1_dropShadow_0_1743" result="shape"/>
</filter>
<linearGradient id="paint0_linear_0_1743" x1="19.8987" y1="37.638" x2="44.1798" y2="89.5884" gradientUnits="userSpaceOnUse">
<stop stop-color="#00C3FF"/>
<stop offset="1" stop-color="#00B0ED"/>
</linearGradient>
<linearGradient id="paint1_linear_0_1743" x1="119.713" y1="1.15344" x2="-19.7627" y2="-73.6664" gradientUnits="userSpaceOnUse">
<stop stop-color="#00B0ED" stop-opacity="0.01"/>
<stop offset="1" stop-color="#00A2CE"/>
</linearGradient>
<linearGradient id="paint2_linear_0_1743" x1="31.4333" y1="94.0089" x2="31.4333" y2="106.588" gradientUnits="userSpaceOnUse">
<stop stop-color="#00B0ED" stop-opacity="0.01"/>
<stop offset="1" stop-color="#00A2CE"/>
</linearGradient>
<linearGradient id="paint3_linear_0_1743" x1="131.003" y1="80.6005" x2="87.7759" y2="30.5318" gradientUnits="userSpaceOnUse">
<stop stop-color="#00B0ED" stop-opacity="0.01"/>
<stop offset="1" stop-color="#00A2CE"/>
</linearGradient>
</defs>
</svg>
